<svg width="114" height="141" viewBox="0 0 114 141" fill="none" xmlns="http://www.w3.org/2000/svg">
<path d="M65.1876 52.8192C73.2372 56.7183 79.4057 62.5095 82.8824 68.6971C86.3602 74.8867 87.1249 81.4263 84.4766 86.8937C81.8284 92.3611 76.2229 95.8152 69.2102 96.9235C62.1998 98.0313 53.8317 96.7814 45.7819 92.8824C37.7321 88.9832 31.563 83.1917 28.0862 77.004C24.6084 70.8145 23.8437 64.2748 26.492 58.8074C29.1402 53.3401 34.7457 49.8859 41.7583 48.7777C48.7689 47.6698 57.1377 48.92 65.1876 52.8192Z" fill="#4869F9" stroke="#2668DA"/>
<path d="M53.7463 53.5991C63.4631 58.3056 67.9537 68.8003 63.9951 76.973C60.0364 85.1457 49.0178 88.1281 39.301 83.4215C29.5843 78.7149 25.0936 68.2202 29.0523 60.0476C33.0109 51.8749 44.0295 48.8925 53.7463 53.5991Z" fill="#BEDBFF" stroke="#2668DA"/>
<mask id="path-3-inside-1_4_334" fill="white">
<path d="M69.2998 80.584L69.1557 80.5142C66.2263 84.0735 58.8573 84.3314 51.7636 80.8954C44.6701 77.4594 40.3049 71.5177 41.2817 67.0127L41.1376 66.9429L53.8042 40.7925L81.9664 54.4336L69.2998 80.584Z"/>
</mask>
<path d="M69.2998 80.584L69.1557 80.5142C66.2263 84.0735 58.8573 84.3314 51.7636 80.8954C44.6701 77.4594 40.3049 71.5177 41.2817 67.0127L41.1376 66.9429L53.8042 40.7925L81.9664 54.4336L69.2998 80.584Z" fill="#2F49F1"/>
<path d="M69.2998 80.584L68.8639 81.484L69.7638 81.9199L70.1998 81.0199L69.2998 80.584ZM69.1557 80.5142L69.5916 79.6142L68.8835 79.2712L68.3835 79.8787L69.1557 80.5142ZM51.7636 80.8954L51.3277 81.7954L51.3277 81.7954L51.7636 80.8954ZM41.2817 67.0127L42.259 67.2246L42.4257 66.4557L41.7176 66.1127L41.2817 67.0127ZM41.1376 66.9429L40.2376 66.507L39.8017 67.407L40.7017 67.8429L41.1376 66.9429ZM53.8042 40.7925L54.2401 39.8925L53.3401 39.4566L52.9042 40.3566L53.8042 40.7925ZM81.9664 54.4336L82.8664 54.8695L83.3023 53.9695L82.4023 53.5336L81.9664 54.4336ZM69.2998 80.584L69.7357 79.684L69.5916 79.6142L69.1557 80.5142L68.7197 81.4141L68.8639 81.484L69.2998 80.584ZM69.1557 80.5142L68.3835 79.8787C67.1739 81.3485 64.9347 82.2525 61.9955 82.3284C59.0811 82.4036 55.6229 81.6536 52.1995 79.9954L51.7636 80.8954L51.3277 81.7954C54.998 83.5732 58.7712 84.4123 62.0471 84.3277C65.2982 84.2438 68.2081 83.2392 69.9278 81.1496L69.1557 80.5142ZM51.7636 80.8954L52.1995 79.9954C48.7763 78.3372 46.0442 76.0888 44.2967 73.7555C42.5343 71.4023 41.8556 69.085 42.259 67.2246L41.2817 67.0127L40.3044 66.8008C39.731 69.4454 40.7465 72.3515 42.6959 74.9544C44.6602 77.5772 47.6575 80.0176 51.3277 81.7954L51.7636 80.8954ZM41.2817 67.0127L41.7176 66.1127L41.5735 66.0429L41.1376 66.9429L40.7017 67.8429L40.8458 67.9127L41.2817 67.0127ZM41.1376 66.9429L42.0376 67.3788L54.7042 41.2284L53.8042 40.7925L52.9042 40.3566L40.2376 66.507L41.1376 66.9429ZM53.8042 40.7925L53.3683 41.6925L81.5305 55.3335L81.9664 54.4336L82.4023 53.5336L54.2401 39.8925L53.8042 40.7925ZM81.9664 54.4336L81.0664 53.9976L68.3998 80.1481L69.2998 80.584L70.1998 81.0199L82.8664 54.8695L81.9664 54.4336Z" fill="#2668DA" mask="url(#path-3-inside-1_4_334)"/>
<rect x="55.3564" y="44.8962" width="4.68946" height="18.9131" transform="rotate(25.8444 55.3564 44.8962)" fill="#BEDBFF" stroke="#2668DA"/>
<path d="M83.789 14.7806C97.0777 21.2175 103.548 34.8325 98.5775 45.0953C93.6062 55.3577 78.9122 58.7201 65.6234 52.2836C52.3345 45.8468 45.8629 32.2322 50.8336 21.9693C55.8047 11.7065 70.4999 8.34368 83.789 14.7806Z" fill="#466AF9" stroke="#2668DA"/>
<path d="M71.1077 17.7561C76.5733 20.4036 79.0262 26.3639 76.7759 31.0097C74.5254 35.6552 68.3284 37.4249 62.8629 34.7776C57.3975 32.1302 54.9443 26.1706 57.1943 21.5249C59.4446 16.8791 65.642 15.1087 71.1077 17.7561Z" fill="#BEDBFF" stroke="#2668DA"/>
<rect x="41.9553" y="92.14" width="4.68946" height="35.9815" transform="rotate(25.8444 41.9553 92.14)" fill="#BEDBFF" stroke="#2668DA"/>
</svg>
